<svg xmlns="http://www.w3.org/2000/svg" viewBox="0 0 757 757" role="img" aria-label="OpenEDC">
  <path fill="#1a2129" fill-rule="evenodd" d="M377.5 0.0 L409.0 0.5 L410.0 1.5 L421.0 1.5 L422.0 2.5 L431.0 2.5 L432.0 3.5 L445.0 4.5 L446.0 5.5 L457.0 6.5 L458.0 7.5 L467.0 8.5 L476.0 11.5 L487.0 13.5 L512.0 21.5 L546.0 36.5 L576.0 54.5 L604.0 76.5 L628.0 99.5 L630.5 104.0 L636.5 109.0 L636.5 111.0 L640.0 113.5 L641.5 117.0 L644.5 119.0 L644.5 121.0 L648.5 124.0 L647.5 125.0 L650.0 126.5 L650.5 129.0 L653.5 131.0 L653.5 133.0 L655.5 134.0 L655.5 136.0 L658.5 138.0 L657.5 139.0 L660.5 141.0 L659.5 142.0 L661.5 145.0 L663.5 146.0 L663.5 148.0 L665.5 149.0 L664.5 150.0 L667.5 152.0 L666.5 153.0 L668.5 154.0 L669.5 158.0 L671.5 159.0 L670.5 160.0 L673.5 165.0 L675.5 166.0 L674.5 167.0 L676.5 168.0 L675.5 169.0 L677.5 170.0 L676.5 171.0 L678.5 172.0 L682.5 183.0 L684.5 184.0 L683.5 185.0 L685.5 186.0 L684.5 187.0 L686.0 187.5 L685.5 189.0 L687.5 190.0 L686.5 191.0 L689.5 195.0 L688.5 196.0 L690.5 197.0 L689.5 198.0 L690.5 201.0 L692.0 201.5 L691.5 203.0 L693.5 204.0 L692.5 205.0 L694.5 207.0 L693.5 208.0 L694.5 211.0 L696.5 212.0 L695.5 213.0 L697.5 215.0 L696.5 216.0 L698.5 218.0 L697.5 219.0 L698.5 222.0 L700.5 223.0 L699.5 225.0 L701.5 226.0 L700.5 228.0 L702.5 229.0 L701.5 231.0 L704.5 236.0 L703.5 238.0 L705.5 239.0 L704.5 240.0 L706.5 243.0 L705.5 245.0 L707.5 246.0 L706.5 248.0 L708.5 250.0 L707.5 252.0 L709.5 254.0 L708.5 256.0 L710.5 258.0 L709.5 261.0 L711.5 262.0 L710.5 265.0 L712.5 267.0 L711.5 270.0 L713.5 272.0 L712.5 275.0 L714.5 277.0 L713.5 280.0 L715.5 282.0 L714.5 286.0 L716.5 288.0 L715.5 292.0 L717.5 294.0 L716.5 299.0 L718.5 301.0 L717.5 303.0 L717.5 306.0 L719.5 309.0 L718.5 315.0 L720.5 318.0 L719.5 326.0 L721.5 329.0 L720.5 340.0 L722.5 345.0 L722.5 411.0 L720.5 416.0 L721.5 427.0 L719.5 431.0 L720.5 438.0 L718.5 441.0 L719.5 448.0 L717.5 450.0 L717.5 453.0 L718.5 454.0 L718.5 456.0 L716.5 458.0 L717.5 463.0 L715.5 465.0 L716.5 469.0 L714.5 471.0 L715.5 475.0 L713.5 477.0 L714.5 480.0 L712.5 482.0 L713.5 484.0 L711.5 487.0 L712.5 490.0 L710.5 492.0 L711.5 494.0 L709.5 496.0 L710.5 499.0 L708.5 500.0 L709.5 503.0 L707.5 504.0 L708.5 507.0 L706.5 508.0 L707.5 510.0 L705.5 512.0 L706.5 514.0 L703.5 519.0 L704.5 521.0 L702.5 522.0 L703.5 524.0 L701.5 526.0 L702.5 527.0 L700.5 529.0 L701.5 530.0 L699.5 532.0 L700.5 533.0 L698.5 535.0 L699.5 536.0 L697.5 538.0 L698.5 539.0 L696.5 541.0 L697.5 542.0 L695.5 543.0 L696.5 545.0 L694.5 546.0 L695.5 547.0 L693.5 549.0 L694.5 550.0 L692.5 551.0 L693.5 552.0 L691.5 554.0 L692.5 555.0 L690.5 556.0 L691.5 557.0 L689.5 559.0 L690.5 560.0 L688.5 561.0 L689.5 562.0 L687.5 563.0 L688.5 564.0 L685.5 568.0 L686.5 569.0 L684.5 570.0 L685.5 571.0 L683.5 572.0 L684.5 573.0 L682.5 574.0 L683.5 575.0 L681.5 576.0 L682.5 577.0 L680.5 578.0 L681.5 579.0 L679.5 580.0 L680.5 581.0 L678.5 582.0 L679.5 583.0 L677.5 584.0 L678.5 585.0 L676.5 586.0 L677.5 587.0 L675.5 588.0 L676.5 589.0 L674.5 590.0 L673.5 594.0 L671.5 595.0 L672.5 596.0 L670.5 597.0 L671.5 598.0 L669.5 599.0 L669.5 601.0 L667.5 602.0 L668.5 603.0 L667.0 603.5 L666.5 606.0 L664.5 607.0 L665.5 608.0 L662.5 610.0 L663.5 611.0 L661.5 612.0 L661.5 614.0 L659.5 615.0 L659.5 617.0 L657.5 618.0 L657.5 620.0 L654.5 622.0 L655.5 623.0 L652.5 625.0 L652.5 627.0 L649.5 629.0 L650.5 630.0 L647.5 632.0 L647.5 634.0 L643.5 637.0 L643.5 639.0 L642.0 639.5 L639.5 642.0 L639.5 644.0 L634.5 648.0 L634.5 650.0 L628.5 655.0 L627.5 658.0 L625.0 659.5 L603.0 682.5 L599.0 684.5 L581.0 699.5 L563.0 711.5 L549.0 718.5 L547.0 720.5 L513.0 735.5 L488.0 743.5 L485.0 743.5 L472.0 747.5 L458.0 749.5 L457.0 750.5 L446.0 751.5 L445.0 752.5 L431.0 753.5 L430.0 754.5 L420.0 754.5 L419.0 755.5 L405.0 755.5 L404.0 756.5 L356.0 756.5 L355.0 755.5 L341.0 755.5 L340.0 754.5 L331.0 754.5 L330.0 753.5 L315.0 752.5 L314.0 751.5 L309.0 751.5 L308.0 750.5 L303.0 750.5 L302.0 749.5 L288.0 747.5 L287.0 746.5 L268.0 742.5 L261.0 739.5 L258.0 739.5 L236.0 731.5 L210.0 719.5 L208.0 717.5 L199.0 713.5 L189.0 706.5 L186.0 705.5 L169.0 693.5 L153.0 679.5 L149.0 677.5 L148.5 676.0 L128.5 657.0 L126.5 653.0 L122.0 649.5 L120.5 646.0 L116.5 643.0 L116.5 641.0 L112.5 638.0 L112.5 636.0 L109.5 634.0 L109.5 632.0 L107.0 630.5 L106.5 628.0 L103.5 626.0 L103.5 624.0 L101.5 623.0 L101.5 621.0 L97.5 615.0 L95.5 614.0 L95.5 612.0 L93.5 611.0 L93.5 609.0 L91.5 608.0 L92.5 607.0 L90.5 604.0 L88.5 603.0 L89.5 602.0 L87.5 599.0 L85.5 598.0 L86.5 597.0 L84.5 596.0 L83.5 592.0 L81.5 591.0 L82.5 590.0 L80.5 589.0 L81.5 588.0 L79.5 587.0 L80.5 586.0 L78.5 585.0 L79.5 584.0 L77.5 583.0 L77.5 581.0 L73.5 575.0 L74.5 574.0 L72.5 573.0 L73.5 572.0 L71.5 571.0 L72.5 570.0 L71.0 569.5 L71.5 568.0 L69.5 567.0 L70.5 566.0 L67.5 562.0 L68.5 561.0 L66.5 560.0 L67.5 559.0 L66.5 556.0 L64.5 555.0 L65.5 554.0 L64.5 551.0 L62.5 550.0 L63.5 549.0 L62.5 546.0 L60.5 545.0 L61.5 543.0 L59.5 542.0 L60.5 541.0 L58.5 539.0 L59.5 538.0 L56.5 533.0 L59.0 531.5 L85.0 543.5 L90.0 544.5 L106.0 551.5 L136.0 561.5 L139.0 561.5 L146.0 564.5 L149.0 564.5 L153.0 566.5 L156.0 566.5 L181.0 573.5 L185.0 573.5 L190.0 575.5 L194.0 575.5 L195.0 576.5 L199.0 576.5 L205.0 578.5 L210.0 578.5 L216.0 580.5 L221.0 580.5 L222.0 581.5 L242.0 583.5 L243.0 584.5 L260.0 585.5 L261.0 586.5 L272.0 586.5 L273.0 587.5 L287.0 587.5 L288.0 588.5 L308.0 588.5 L319.0 594.5 L321.0 594.5 L335.0 600.5 L338.0 600.5 L347.0 603.5 L351.0 603.5 L352.0 604.5 L368.0 605.5 L369.0 606.5 L396.0 606.5 L397.0 605.5 L404.0 605.5 L405.0 604.5 L410.0 604.5 L411.0 603.5 L422.0 601.5 L433.0 597.5 L449.0 589.5 L462.0 580.5 L474.5 569.0 L476.5 565.0 L479.0 563.5 L481.5 559.0 L484.5 557.0 L483.5 556.0 L486.5 554.0 L486.5 552.0 L488.5 551.0 L487.5 550.0 L490.5 548.0 L489.5 547.0 L491.5 546.0 L494.5 541.0 L493.5 540.0 L495.5 539.0 L494.5 538.0 L496.5 537.0 L495.5 536.0 L497.5 535.0 L496.5 534.0 L498.5 533.0 L497.5 532.0 L499.5 531.0 L498.5 530.0 L500.5 529.0 L499.5 528.0 L501.0 527.5 L500.5 526.0 L502.5 525.0 L503.5 522.0 L502.5 521.0 L504.5 520.0 L503.5 519.0 L505.5 518.0 L506.5 515.0 L505.5 514.0 L507.5 513.0 L506.5 511.0 L508.5 510.0 L509.5 507.0 L508.5 506.0 L510.5 504.0 L509.5 503.0 L512.5 498.0 L511.5 496.0 L513.5 495.0 L512.5 493.0 L514.5 491.0 L513.5 489.0 L515.5 488.0 L514.5 486.0 L516.5 484.0 L515.5 482.0 L517.5 480.0 L516.5 478.0 L518.5 476.0 L517.5 473.0 L519.5 471.0 L518.5 468.0 L520.5 466.0 L519.5 463.0 L521.5 461.0 L520.5 457.0 L522.5 455.0 L521.5 451.0 L523.5 448.0 L522.5 444.0 L524.5 441.0 L523.5 435.0 L525.5 432.0 L524.5 424.0 L526.5 420.0 L525.5 406.0 L527.5 399.0 L527.5 342.0 L525.5 338.0 L526.5 329.0 L524.5 326.0 L525.5 320.0 L523.5 317.0 L524.5 312.0 L522.5 310.0 L523.5 306.0 L521.5 304.0 L522.5 302.0 L520.5 299.0 L521.5 296.0 L519.5 294.0 L520.5 291.0 L518.5 289.0 L519.5 287.0 L517.5 285.0 L518.5 283.0 L516.5 281.0 L517.5 279.0 L515.5 277.0 L516.5 276.0 L514.5 273.0 L515.5 271.0 L513.5 270.0 L514.5 268.0 L512.5 266.0 L513.5 265.0 L511.5 263.0 L512.5 262.0 L510.5 260.0 L511.5 259.0 L508.5 254.0 L509.5 253.0 L508.5 250.0 L506.5 249.0 L507.5 248.0 L505.5 246.0 L506.5 245.0 L504.5 244.0 L505.5 242.0 L504.0 241.5 L504.5 240.0 L502.5 239.0 L503.5 238.0 L501.5 236.0 L502.5 235.0 L501.0 234.5 L501.5 233.0 L499.5 232.0 L500.5 231.0 L497.5 226.0 L497.5 224.0 L495.5 223.0 L496.5 222.0 L494.5 221.0 L495.5 220.0 L493.5 219.0 L494.5 218.0 L492.5 217.0 L493.5 216.0 L491.5 215.0 L492.5 214.0 L490.5 213.0 L491.5 212.0 L488.5 210.0 L489.5 209.0 L487.5 206.0 L485.5 205.0 L485.5 203.0 L483.5 200.0 L472.5 187.0 L454.0 171.5 L434.0 160.5 L408.0 152.5 L391.0 151.5 L390.0 150.5 L380.0 150.5 L379.0 151.5 L377.0 150.5 L366.0 150.5 L365.0 151.5 L355.0 151.5 L354.0 152.5 L349.0 152.5 L348.0 153.5 L340.0 154.5 L325.0 159.5 L309.0 167.5 L296.0 176.5 L281.5 190.0 L280.5 193.0 L276.5 196.0 L275.5 199.0 L273.5 200.0 L273.5 202.0 L270.5 204.0 L271.5 205.0 L268.5 207.0 L269.5 208.0 L268.0 208.5 L265.5 212.0 L266.5 213.0 L264.5 214.0 L265.5 215.0 L263.5 216.0 L264.5 217.0 L262.5 218.0 L263.5 219.0 L262.0 219.5 L262.5 221.0 L260.5 222.0 L261.5 223.0 L258.5 227.0 L259.5 228.0 L257.5 229.0 L258.5 230.0 L257.0 230.5 L257.5 232.0 L255.5 233.0 L254.5 236.0 L255.5 237.0 L253.5 238.0 L254.5 239.0 L252.5 241.0 L253.5 242.0 L251.5 243.0 L252.5 244.0 L250.5 246.0 L251.5 247.0 L249.5 249.0 L250.5 250.0 L248.5 251.0 L249.5 253.0 L247.5 254.0 L248.5 255.0 L246.5 257.0 L247.5 258.0 L244.5 263.0 L245.5 265.0 L243.5 266.0 L244.5 268.0 L242.5 270.0 L243.5 272.0 L241.5 273.0 L242.5 275.0 L240.5 277.0 L241.5 279.0 L239.5 281.0 L240.5 283.0 L238.5 285.0 L239.5 287.0 L237.5 289.0 L238.5 292.0 L236.5 294.0 L237.5 297.0 L235.5 299.0 L236.5 302.0 L234.5 304.0 L235.5 308.0 L233.5 310.0 L234.5 315.0 L232.5 317.0 L233.5 323.0 L231.5 326.0 L232.5 334.0 L230.5 338.0 L230.5 346.0 L231.5 347.0 L231.0 385.5 L228.5 382.0 L226.5 375.0 L223.5 370.0 L223.5 368.0 L211.5 340.0 L210.5 335.0 L202.5 316.0 L198.5 302.0 L196.5 299.0 L193.5 290.0 L193.5 287.0 L187.5 271.0 L183.5 254.0 L181.5 250.0 L181.5 247.0 L175.5 226.0 L174.5 217.0 L172.5 212.0 L170.5 197.0 L169.5 196.0 L169.5 191.0 L168.5 190.0 L168.5 185.0 L167.5 184.0 L167.5 178.0 L166.5 177.0 L166.5 170.0 L165.5 169.0 L165.5 162.0 L164.5 161.0 L164.5 152.0 L163.5 151.0 L163.5 137.0 L162.5 136.0 L162.5 84.0 L163.5 83.0 L163.5 70.0 L164.5 68.0 L182.0 54.5 L210.0 37.5 L238.0 24.5 L267.0 14.5 L270.0 14.5 L274.0 12.5 L285.0 10.5 L286.0 9.5 L290.0 9.5 L295.0 7.5 L311.0 5.5 L312.0 4.5 L318.0 4.5 L319.0 3.5 L325.0 3.5 L326.0 2.5 L347.0 1.5 L348.0 0.5 Z"/>
  <path fill="#284997" fill-rule="evenodd" d="M163.5 68.0 L164.0 67.5 L164.5 69.0 L163.5 70.0 L163.5 83.0 L162.5 84.0 L162.5 136.0 L163.5 137.0 L163.5 151.0 L164.5 152.0 L164.5 161.0 L165.5 162.0 L166.5 177.0 L167.5 178.0 L167.5 184.0 L168.5 185.0 L168.5 190.0 L169.5 191.0 L169.5 196.0 L170.5 197.0 L172.5 212.0 L174.5 217.0 L175.5 226.0 L176.5 227.0 L181.5 250.0 L183.5 254.0 L187.5 271.0 L193.5 287.0 L193.5 290.0 L196.5 299.0 L198.5 302.0 L206.5 327.0 L210.5 335.0 L211.5 340.0 L213.5 343.0 L223.5 370.0 L226.5 375.0 L228.5 382.0 L231.5 386.0 L231.5 406.0 L232.5 407.0 L233.5 432.0 L234.5 433.0 L234.5 440.0 L235.5 441.0 L237.5 459.0 L238.5 460.0 L240.5 474.0 L243.5 484.0 L242.5 486.0 L244.5 488.0 L246.5 498.0 L251.5 513.0 L264.0 541.5 L256.0 537.5 L254.0 537.5 L209.0 514.5 L207.0 512.5 L180.0 497.5 L141.0 471.5 L117.0 453.5 L88.0 429.5 L66.0 409.5 L39.5 382.0 L33.5 377.0 L34.5 331.0 L35.5 330.0 L35.5 320.0 L36.5 319.0 L36.5 311.0 L37.5 310.0 L39.5 290.0 L40.5 289.0 L43.5 270.0 L44.5 269.0 L45.5 261.0 L47.5 257.0 L49.5 246.0 L64.5 202.0 L67.5 197.0 L70.5 188.0 L71.5 186.0 L73.5 185.0 L72.5 184.0 L74.5 182.0 L83.5 163.0 L104.5 130.0 L130.5 98.0 L149.0 79.5 Z M525.5 339.0 L526.5 339.0 L527.5 342.0 L527.5 399.0 L526.5 400.0 L526.0 405.5 L526.5 343.0 L525.5 342.0 Z"/>
  <path fill="#dd9865" fill-rule="evenodd" d="M525.5 362.0 L526.5 362.0 L526.0 398.5 Z M33.5 378.0 L35.0 377.5 L66.0 409.5 L88.0 429.5 L117.0 453.5 L141.0 471.5 L180.0 497.5 L207.0 512.5 L209.0 514.5 L254.0 537.5 L265.0 541.5 L270.5 552.0 L280.5 565.0 L297.0 580.5 L308.5 588.0 L293.0 588.5 L292.0 587.5 L276.0 587.5 L275.0 586.5 L254.0 585.5 L253.0 584.5 L246.0 584.5 L245.0 583.5 L224.0 581.5 L223.0 580.5 L212.0 579.5 L211.0 578.5 L201.0 577.5 L200.0 576.5 L191.0 575.5 L186.0 573.5 L182.0 573.5 L181.0 572.5 L154.0 566.5 L143.0 562.5 L140.0 562.5 L104.0 550.5 L56.0 530.5 L53.5 526.0 L53.5 523.0 L51.5 519.0 L51.5 516.0 L49.5 512.0 L49.5 509.0 L44.5 492.0 L44.5 488.0 L43.5 487.0 L43.5 483.0 L42.5 482.0 L42.5 478.0 L40.5 472.0 L40.5 467.0 L39.5 466.0 L39.5 461.0 L38.5 460.0 L36.5 438.0 L35.5 437.0 L35.5 426.0 L34.5 425.0 Z"/>
</svg>
